<?xml version="1.0" encoding="iso-8859-1"?>
<!-- Generator: Adobe Illustrator 19.0.0, SVG Export Plug-In . SVG Version: 6.00 Build 0)  -->
<svg version="1.1" id="Layer_1" xmlns="http://www.w3.org/2000/svg" xmlns:xlink="http://www.w3.org/1999/xlink" x="0px" y="0px"
	 viewBox="0 0 512 512" style="enable-background:new 0 0 512 512;" xml:space="preserve">
<g>
	<g>
		<path d="M453.13,50.155H318.549V29.83c0-5.633-4.567-10.199-10.199-10.199h-42.151v-9.432C266.199,4.566,261.632,0,256,0
			s-10.199,4.566-10.199,10.199v9.432H203.65c-5.632,0-10.199,4.566-10.199,10.199v20.325H58.87
			c-5.632,0-10.199,4.566-10.199,10.199v235.056c0,5.633,4.567,10.199,10.199,10.199h20.884v25.233
			c0,5.633,4.567,10.199,10.199,10.199h28.37L74.802,499.091c-1.495,5.431,1.695,11.046,7.125,12.541
			c0.907,0.25,1.818,0.368,2.714,0.368c4.476,0,8.582-2.97,9.828-7.494l24.74-89.846h126.592v47.059
			c0,5.633,4.567,10.199,10.199,10.199s10.199-4.566,10.199-10.199v-47.059h61.195c5.632,0,10.199-4.566,10.199-10.199
			s-4.567-10.199-10.199-10.199h-61.195v-53.219h106.32l45.012,163.464c1.246,4.525,5.352,7.494,9.828,7.494
			c0.897,0,1.807-0.119,2.714-0.368c5.43-1.495,8.62-7.11,7.125-12.541l-43.521-158.048h28.37c5.632,0,10.199-4.566,10.199-10.199
			v-25.233h20.884c5.632,0,10.199-4.566,10.199-10.199V60.355C463.33,54.722,458.763,50.155,453.13,50.155z M213.849,40.03h84.302
			v10.126h-84.302V40.03z M245.801,394.262H124.826l14.654-53.219h106.32V394.262z M411.849,320.644H100.152v-15.034h311.698
			V320.644z M442.932,285.211H69.069V70.554h373.864V285.211z"/>
	</g>
</g>
<g>
	<g>
		<path d="M364.272,175.27H340.45v-74.856c0-5.633-4.567-10.199-10.199-10.199H147.728c-5.632,0-10.199,4.566-10.199,10.199v154.939
			c0,5.633,4.567,10.199,10.199,10.199h216.545c5.632,0,10.199-4.566,10.199-10.199v-69.884
			C374.471,179.836,369.904,175.27,364.272,175.27z M311.945,110.613h8.106v64.657h-8.106V110.613z M354.073,245.153H157.927
			v-25.366h17.387c5.632,0,10.199-4.566,10.199-10.199s-4.567-10.199-10.199-10.199h-17.387v-23.95h42.589v23.363
			c0,5.633,4.567,10.199,10.199,10.199c5.632,0,10.199-4.566,10.199-10.199v-67.125c0-5.633-4.567-10.199-10.199-10.199
			c-5.632,0-10.199,4.566-10.199,10.199v23.363h-42.589v-44.428h133.62v64.657h-9.945v-19.685c0-5.633-4.567-10.199-10.199-10.199
			s-10.199,4.566-10.199,10.199v29.885c0,5.633,4.567,10.199,10.199,10.199h82.67V245.153z"/>
	</g>
</g>
<g>
	<g>
		<path d="M365.69,394.262h-4.639c-5.632,0-10.199,4.566-10.199,10.199c0,5.633,4.567,10.199,10.199,10.199h4.639
			c5.632,0,10.199-4.566,10.199-10.199C375.889,398.828,371.323,394.262,365.69,394.262z"/>
	</g>
</g>
<g>
</g>
<g>
</g>
<g>
</g>
<g>
</g>
<g>
</g>
<g>
</g>
<g>
</g>
<g>
</g>
<g>
</g>
<g>
</g>
<g>
</g>
<g>
</g>
<g>
</g>
<g>
</g>
<g>
</g>
</svg>
